<mxfile host="app.diagrams.net" modified="2023-09-04T07:08:41.845Z" agent="Mozilla/5.0 (X11; Linux x86_64) AppleWebKit/537.36 (KHTML, like Gecko) Chrome/116.0.0.0 Safari/537.36" version="21.6.8" etag="2fAJcv3ijx9oe0DhcYmb" type="github">
  <diagram name="Page-1" id="wFGCldTrQh_1a03lcc_g">
    <mxGraphModel>
      <root>
        <mxCell id="0" />
        <mxCell id="1" parent="0" />
      </root>
    </mxGraphModel>
  </diagram>
</mxfile>
